<svg xmlns="http://www.w3.org/2000/svg" viewBox="0 0 1600 1200" width="1600" height="1200" role="img" aria-labelledby="t d"><title id="t">Fine grade aragonite, 20 lb retail bag</title><desc id="d">Studio render of the 20 lb printed retail bag of fine grade oolitic aragonite, 0.5–1.0 mm, standing three-quarter front on a white sweep. A render of proposed packaging, not a photograph of a produced bag.</desc>
<defs>
  <linearGradient id="sweep" x1="0" y1="0" x2="0" y2="1">
    <stop offset="0" stop-color="#FFFFFF"/>
    <stop offset="0.52" stop-color="#FBFAF8"/>
    <stop offset="0.70" stop-color="#EFEDE8"/>
    <stop offset="1" stop-color="#E4E1DA"/>
  </linearGradient>
  <radialGradient id="vignette" cx="0.44" cy="0.40" r="0.78">
    <stop offset="0.45" stop-color="#FFFFFF" stop-opacity="0"/>
    <stop offset="1" stop-color="#9A958C" stop-opacity="0.30"/>
  </radialGradient>

  <!-- The key is upper left, so the face brightens off-centre to the left and
       falls away to both edges. -->
  <linearGradient id="face" x1="0" y1="0" x2="1" y2="0">
    <stop offset="0" stop-color="#B9B2A4"/>
    <stop offset="0.06" stop-color="#DCD6C9"/>
    <stop offset="0.20" stop-color="#F7F4EC"/>
    <stop offset="0.34" stop-color="#FFFFFF"/>
    <stop offset="0.55" stop-color="#F4F1E8"/>
    <stop offset="0.80" stop-color="#DED8CB"/>
    <stop offset="0.94" stop-color="#C3BCAD"/>
    <stop offset="1" stop-color="#ADA697"/>
  </linearGradient>
  <linearGradient id="faceV" x1="0" y1="0" x2="0" y2="1">
    <stop offset="0" stop-color="#8E877A" stop-opacity="0.22"/>
    <stop offset="0.14" stop-color="#FFFFFF" stop-opacity="0"/>
    <stop offset="0.82" stop-color="#FFFFFF" stop-opacity="0"/>
    <stop offset="1" stop-color="#7E776B" stop-opacity="0.30"/>
  </linearGradient>
  <linearGradient id="gusset" x1="0" y1="0" x2="1" y2="0">
    <stop offset="0" stop-color="#8F8779" stop-opacity="0.55"/>
    <stop offset="0.45" stop-color="#B5AE9F" stop-opacity="0.34"/>
    <stop offset="1" stop-color="#6E675B" stop-opacity="0.52"/>
  </linearGradient>
  <linearGradient id="seal" x1="0" y1="0" x2="1" y2="0">
    <stop offset="0" stop-color="#05202B"/>
    <stop offset="0.28" stop-color="#14465A"/>
    <stop offset="0.44" stop-color="#1B5468"/>
    <stop offset="0.72" stop-color="#0C3040"/>
    <stop offset="1" stop-color="#04191F"/>
  </linearGradient>

  <!-- Matte polyethylene: a fine isotropic grain, barely there. -->
  <filter id="filmgrain" x="0" y="0" width="100%" height="100%">
    <feTurbulence type="fractalNoise" baseFrequency="0.9" numOctaves="3" seed="4" result="n"/>
    <feColorMatrix in="n" type="saturate" values="0"/>
  </filter>
  <filter id="soft40"><feGaussianBlur stdDeviation="40"/></filter>
  <filter id="soft22"><feGaussianBlur stdDeviation="22"/></filter>
  <filter id="soft12"><feGaussianBlur stdDeviation="12"/></filter>
  <filter id="soft6"><feGaussianBlur stdDeviation="6"/></filter>
  <filter id="soft3"><feGaussianBlur stdDeviation="3"/></filter>
<radialGradient id="ooid" cx="0.38" cy="0.34" r="0.86"><stop offset="0" stop-color="#F6EDDA"/><stop offset="0.38" stop-color="#EADCBD"/><stop offset="0.72" stop-color="#D8C49A"/><stop offset="0.92" stop-color="#C0A877"/><stop offset="1" stop-color="#AD9566"/></radialGradient></defs><rect width="1600" height="1200" fill="url(#sweep)"/><rect width="1600" height="1200" fill="url(#vignette)"/><g transform="translate(-186.0 -141.6) scale(1.24)"><g filter="url(#soft22)"><ellipse cx="815.0" cy="1020" rx="318" ry="30" fill="#6F6A61" opacity="0.52"/></g><g filter="url(#soft40)"><ellipse cx="867.0" cy="1034" rx="424" ry="44" fill="#7C776D" opacity="0.26"/></g><path d="M980 236 C1020 330 1022 786 996 962 L1058 902 C1090 756 1088 356 1044 262 Z" fill="#E6E1D6"/><path d="M980 236 C1020 330 1022 786 996 962 L1058 902 C1090 756 1088 356 1044 262 Z" fill="url(#gusset)"/><g filter="url(#soft12)" opacity="0.4"><path d="M1048 276 C1082 476 1084 746 1056 896" stroke="#5F594E" stroke-width="22" fill="none"/></g><clipPath id="cf"><path d="M570 236 C530 332 528 796 554 960 C570 1014 978 1018 996 962 C1022 786 1020 330 980 236 Z"/></clipPath><path d="M570 236 C530 332 528 796 554 960 C570 1014 978 1018 996 962 C1022 786 1020 330 980 236 Z" fill="url(#face)"/><g clip-path="url(#cf)"><rect x="500" y="216" width="550" height="830" fill="url(#faceV)"/><g filter="url(#soft12)" opacity="0.42"><path d="M632 986 C686 806 654 676 712 536" stroke="#8B8476" stroke-width="15" fill="none"/><path d="M886 990 C846 776 896 656 848 486" stroke="#8B8476" stroke-width="12" fill="none"/></g><g filter="url(#soft12)" opacity="0.5"><path d="M666 976 C722 796 688 666 748 526" stroke="#FFFFFF" stroke-width="13" fill="none"/></g><g filter="url(#soft22)" opacity="0.45"><ellipse cx="686" cy="621.0" rx="48" ry="308.0" fill="#FFFFFF"/></g><g filter="url(#soft12)" opacity="0.5"><path d="M548 236 V1006" stroke="#7A7367" stroke-width="26" fill="none"/><path d="M1002 236 V1006" stroke="#6E6759" stroke-width="30" fill="none"/><path d="M540 282 H1010" stroke="#7A7367" stroke-width="20" fill="none"/></g></g><g clip-path="url(#cf)"><g transform="translate(602 412) scale(1.45)" fill="#0B2C3A"><circle cx="0" cy="0" r="3.4"/><circle cx="12" cy="-2" r="5.6"/><circle cx="29.5" cy="-5" r="8.6"/><rect x="-7" y="5.5" width="45" height="1.8" rx="0.9" fill="#B8975A"/></g><text x="598" y="464" font-family="system-ui,-apple-system,'Segoe UI',Roboto,'Helvetica Neue',Arial,sans-serif" font-size="32.0" font-weight="700" fill="#0B2C3A" text-anchor="start">Aragonite sand</text><text x="598" y="492" font-family="ui-monospace,SFMono-Regular,Menlo,Consolas,'Liberation Mono',monospace" font-size="14.5" font-weight="400" fill="#4E6B74" text-anchor="start" letter-spacing="0.06em">by AragoCor Minerals</text><rect x="598" y="510" width="354" height="2.6" fill="#D9BE86"/><text x="598" y="584" font-family="system-ui,-apple-system,'Segoe UI',Roboto,'Helvetica Neue',Arial,sans-serif" font-size="66.0" font-weight="700" fill="#0B2C3A" text-anchor="start">Fine</text><text x="598" y="618" font-family="ui-monospace,SFMono-Regular,Menlo,Consolas,'Liberation Mono',monospace" font-size="20.0" font-weight="500" fill="#17707E" text-anchor="start">0.5–1.0 mm · 18–35 mesh</text><rect x="598" y="642" width="354" height="186" rx="6" fill="#FFFDF8" stroke="#0B2C3A" stroke-opacity="0.16" stroke-width="2"/><clipPath id="cw"><rect x="598" y="642" width="354" height="186" rx="6"/></clipPath><g clip-path="url(#cw)"><ellipse cx="817.7" cy="822.5" rx="12.37" ry="10.91" fill="#8E7448" opacity="0.34"/><ellipse cx="815.3" cy="819.6" rx="12.12" ry="11.36" transform="rotate(111 815.3 819.6)" fill="url(#ooid)"/><ellipse cx="880.1" cy="709.4" rx="12.16" ry="10.73" fill="#8E7448" opacity="0.34"/><ellipse cx="877.7" cy="706.6" rx="11.92" ry="11.21" transform="rotate(128 877.7 706.6)" fill="url(#ooid)"/><ellipse cx="936.9" cy="692.9" rx="12.10" ry="10.67" fill="#8E7448" opacity="0.34"/><ellipse cx="934.5" cy="690.1" rx="11.86" ry="12.09" transform="rotate(69 934.5 690.1)" fill="url(#ooid)"/><ellipse cx="781.2" cy="689.6" rx="12.05" ry="10.63" fill="#8E7448" opacity="0.34"/><ellipse cx="778.9" cy="686.8" rx="11.81" ry="12.06" transform="rotate(102 778.9 686.8)" fill="url(#ooid)"/><ellipse cx="653.4" cy="681.1" rx="11.94" ry="10.53" fill="#8E7448" opacity="0.34"/><ellipse cx="651.0" cy="678.3" rx="11.70" ry="10.74" transform="rotate(95 651.0 678.3)" fill="url(#ooid)"/><ellipse cx="947.5" cy="720.7" rx="11.92" ry="10.52" fill="#8E7448" opacity="0.34"/><ellipse cx="945.2" cy="717.8" rx="11.69" ry="11.94" transform="rotate(94 945.2 717.8)" fill="url(#ooid)"/><ellipse cx="880.3" cy="741.3" rx="11.88" ry="10.48" fill="#8E7448" opacity="0.34"/><ellipse cx="878.0" cy="738.5" rx="11.65" ry="12.45" transform="rotate(132 878.0 738.5)" fill="url(#ooid)"/><ellipse cx="912.6" cy="728.3" rx="11.70" ry="10.33" fill="#8E7448" opacity="0.34"/><ellipse cx="910.3" cy="725.5" rx="11.48" ry="11.22" transform="rotate(41 910.3 725.5)" fill="url(#ooid)"/><ellipse cx="828.9" cy="691.7" rx="11.60" ry="10.23" fill="#8E7448" opacity="0.34"/><ellipse cx="826.7" cy="689.0" rx="11.37" ry="10.61" transform="rotate(146 826.7 689.0)" fill="url(#ooid)"/><ellipse cx="763.1" cy="750.0" rx="11.57" ry="10.21" fill="#8E7448" opacity="0.34"/><ellipse cx="760.8" cy="747.3" rx="11.34" ry="11.73" transform="rotate(110 760.8 747.3)" fill="url(#ooid)"/><ellipse cx="732.2" cy="824.8" rx="11.35" ry="10.01" fill="#8E7448" opacity="0.34"/><ellipse cx="730.0" cy="822.1" rx="11.12" ry="11.01" transform="rotate(90 730.0 822.1)" fill="url(#ooid)"/><ellipse cx="749.8" cy="801.2" rx="11.30" ry="9.97" fill="#8E7448" opacity="0.34"/><ellipse cx="747.6" cy="798.6" rx="11.07" ry="10.52" transform="rotate(95 747.6 798.6)" fill="url(#ooid)"/><ellipse cx="937.5" cy="751.1" rx="11.26" ry="9.93" fill="#8E7448" opacity="0.34"/><ellipse cx="935.3" cy="748.4" rx="11.04" ry="10.33" transform="rotate(112 935.3 748.4)" fill="url(#ooid)"/><ellipse cx="606.6" cy="663.9" rx="11.19" ry="9.87" fill="#8E7448" opacity="0.34"/><ellipse cx="604.4" cy="661.3" rx="10.97" ry="11.22" transform="rotate(121 604.4 661.3)" fill="url(#ooid)"/><ellipse cx="712.0" cy="803.2" rx="11.19" ry="9.87" fill="#8E7448" opacity="0.34"/><ellipse cx="709.9" cy="800.6" rx="10.97" ry="10.47" transform="rotate(17 709.9 800.6)" fill="url(#ooid)"/><ellipse cx="841.8" cy="713.6" rx="11.08" ry="9.77" fill="#8E7448" opacity="0.34"/><ellipse cx="839.7" cy="710.9" rx="10.86" ry="10.53" transform="rotate(124 839.7 710.9)" fill="url(#ooid)"/><ellipse cx="636.9" cy="697.7" rx="11.00" ry="9.70" fill="#8E7448" opacity="0.34"/><ellipse cx="634.7" cy="695.1" rx="10.78" ry="10.80" transform="rotate(135 634.7 695.1)" fill="url(#ooid)"/><ellipse cx="735.4" cy="723.9" rx="10.86" ry="9.59" fill="#8E7448" opacity="0.34"/><ellipse cx="733.3" cy="721.3" rx="10.65" ry="10.52" transform="rotate(72 733.3 721.3)" fill="url(#ooid)"/><ellipse cx="727.3" cy="696.5" rx="10.78" ry="9.51" fill="#8E7448" opacity="0.34"/><ellipse cx="725.2" cy="693.9" rx="10.57" ry="11.34" transform="rotate(30 725.2 693.9)" fill="url(#ooid)"/><ellipse cx="633.3" cy="767.1" rx="10.70" ry="9.44" fill="#8E7448" opacity="0.34"/><ellipse cx="631.2" cy="764.6" rx="10.49" ry="9.94" transform="rotate(106 631.2 764.6)" fill="url(#ooid)"/><ellipse cx="648.3" cy="745.6" rx="10.65" ry="9.40" fill="#8E7448" opacity="0.34"/><ellipse cx="646.3" cy="743.1" rx="10.44" ry="10.69" transform="rotate(78 646.3 743.1)" fill="url(#ooid)"/><ellipse cx="862.7" cy="665.4" rx="10.43" ry="9.20" fill="#8E7448" opacity="0.34"/><ellipse cx="860.7" cy="662.9" rx="10.22" ry="10.33" transform="rotate(79 860.7 662.9)" fill="url(#ooid)"/><ellipse cx="607.8" cy="814.4" rx="10.40" ry="9.17" fill="#8E7448" opacity="0.34"/><ellipse cx="605.7" cy="811.9" rx="10.19" ry="10.50" transform="rotate(160 605.7 811.9)" fill="url(#ooid)"/><ellipse cx="678.3" cy="687.9" rx="10.38" ry="9.16" fill="#8E7448" opacity="0.34"/><ellipse cx="676.3" cy="685.5" rx="10.17" ry="10.77" transform="rotate(115 676.3 685.5)" fill="url(#ooid)"/><ellipse cx="875.6" cy="648.6" rx="10.34" ry="9.12" fill="#8E7448" opacity="0.34"/><ellipse cx="873.5" cy="646.2" rx="10.13" ry="10.08" transform="rotate(171 873.5 646.2)" fill="url(#ooid)"/><ellipse cx="893.0" cy="811.6" rx="10.32" ry="9.10" fill="#8E7448" opacity="0.34"/><ellipse cx="891.0" cy="809.2" rx="10.11" ry="10.02" transform="rotate(113 891.0 809.2)" fill="url(#ooid)"/><ellipse cx="607.1" cy="698.3" rx="10.29" ry="9.08" fill="#8E7448" opacity="0.34"/><ellipse cx="605.1" cy="695.9" rx="10.09" ry="10.76" transform="rotate(123 605.1 695.9)" fill="url(#ooid)"/><ellipse cx="915.8" cy="705.2" rx="10.25" ry="9.05" fill="#8E7448" opacity="0.34"/><ellipse cx="913.7" cy="702.8" rx="10.05" ry="9.86" transform="rotate(134 913.7 702.8)" fill="url(#ooid)"/><ellipse cx="829.7" cy="733.0" rx="10.25" ry="9.04" fill="#8E7448" opacity="0.34"/><ellipse cx="827.7" cy="730.6" rx="10.05" ry="10.23" transform="rotate(165 827.7 730.6)" fill="url(#ooid)"/><ellipse cx="606.2" cy="731.0" rx="10.19" ry="8.99" fill="#8E7448" opacity="0.34"/><ellipse cx="604.3" cy="728.6" rx="9.99" ry="10.21" transform="rotate(96 604.3 728.6)" fill="url(#ooid)"/><ellipse cx="860.0" cy="726.5" rx="10.09" ry="8.90" fill="#8E7448" opacity="0.34"/><ellipse cx="858.0" cy="724.1" rx="9.89" ry="10.73" transform="rotate(95 858.0 724.1)" fill="url(#ooid)"/><ellipse cx="792.1" cy="668.3" rx="10.06" ry="8.88" fill="#8E7448" opacity="0.34"/><ellipse cx="790.1" cy="665.9" rx="9.86" ry="9.68" transform="rotate(169 790.1 665.9)" fill="url(#ooid)"/><ellipse cx="676.4" cy="651.7" rx="10.05" ry="8.87" fill="#8E7448" opacity="0.34"/><ellipse cx="674.4" cy="649.3" rx="9.85" ry="10.64" transform="rotate(31 674.4 649.3)" fill="url(#ooid)"/><ellipse cx="858.2" cy="691.1" rx="9.93" ry="8.76" fill="#8E7448" opacity="0.34"/><ellipse cx="856.3" cy="688.8" rx="9.73" ry="8.98" transform="rotate(154 856.3 688.8)" fill="url(#ooid)"/><ellipse cx="606.1" cy="753.6" rx="9.92" ry="8.75" fill="#8E7448" opacity="0.34"/><ellipse cx="604.2" cy="751.3" rx="9.72" ry="10.39" transform="rotate(69 604.2 751.3)" fill="url(#ooid)"/><ellipse cx="623.5" cy="648.7" rx="9.91" ry="8.75" fill="#8E7448" opacity="0.34"/><ellipse cx="621.5" cy="646.3" rx="9.72" ry="9.29" transform="rotate(123 621.5 646.3)" fill="url(#ooid)"/><ellipse cx="677.3" cy="821.3" rx="9.88" ry="8.72" fill="#8E7448" opacity="0.34"/><ellipse cx="675.4" cy="819.0" rx="9.69" ry="10.46" transform="rotate(38 675.4 819.0)" fill="url(#ooid)"/><ellipse cx="860.5" cy="752.3" rx="9.83" ry="8.68" fill="#8E7448" opacity="0.34"/><ellipse cx="858.5" cy="750.0" rx="9.64" ry="9.55" transform="rotate(119 858.5 750.0)" fill="url(#ooid)"/><ellipse cx="848.2" cy="786.2" rx="9.80" ry="8.65" fill="#8E7448" opacity="0.34"/><ellipse cx="846.2" cy="783.9" rx="9.61" ry="9.13" transform="rotate(75 846.2 783.9)" fill="url(#ooid)"/><ellipse cx="622.2" cy="713.2" rx="9.80" ry="8.64" fill="#8E7448" opacity="0.34"/><ellipse cx="620.3" cy="710.9" rx="9.60" ry="8.99" transform="rotate(86 620.3 710.9)" fill="url(#ooid)"/><ellipse cx="902.8" cy="687.7" rx="9.77" ry="8.62" fill="#8E7448" opacity="0.34"/><ellipse cx="900.9" cy="685.4" rx="9.58" ry="9.12" transform="rotate(15 900.9 685.4)" fill="url(#ooid)"/><ellipse cx="656.2" cy="800.3" rx="9.77" ry="8.62" fill="#8E7448" opacity="0.34"/><ellipse cx="654.3" cy="798.0" rx="9.58" ry="9.39" transform="rotate(27 654.3 798.0)" fill="url(#ooid)"/><ellipse cx="849.8" cy="817.7" rx="9.73" ry="8.59" fill="#8E7448" opacity="0.34"/><ellipse cx="847.9" cy="815.4" rx="9.54" ry="8.89" transform="rotate(27 847.9 815.4)" fill="url(#ooid)"/><ellipse cx="839.3" cy="766.7" rx="9.73" ry="8.58" fill="#8E7448" opacity="0.34"/><ellipse cx="837.4" cy="764.4" rx="9.54" ry="9.39" transform="rotate(57 837.4 764.4)" fill="url(#ooid)"/><ellipse cx="910.6" cy="772.2" rx="9.72" ry="8.57" fill="#8E7448" opacity="0.34"/><ellipse cx="908.7" cy="769.9" rx="9.53" ry="9.92" transform="rotate(75 908.7 769.9)" fill="url(#ooid)"/><ellipse cx="736.3" cy="775.7" rx="9.69" ry="8.55" fill="#8E7448" opacity="0.34"/><ellipse cx="734.4" cy="773.5" rx="9.50" ry="9.06" transform="rotate(34 734.4 773.5)" fill="url(#ooid)"/><ellipse cx="836.4" cy="664.4" rx="9.63" ry="8.50" fill="#8E7448" opacity="0.34"/><ellipse cx="834.5" cy="662.1" rx="9.44" ry="9.10" transform="rotate(134 834.5 662.1)" fill="url(#ooid)"/><ellipse cx="949.1" cy="771.1" rx="9.61" ry="8.48" fill="#8E7448" opacity="0.34"/><ellipse cx="947.3" cy="768.8" rx="9.42" ry="8.91" transform="rotate(84 947.3 768.8)" fill="url(#ooid)"/><ellipse cx="912.9" cy="800.5" rx="9.60" ry="8.47" fill="#8E7448" opacity="0.34"/><ellipse cx="911.0" cy="798.2" rx="9.41" ry="9.93" transform="rotate(149 911.0 798.2)" fill="url(#ooid)"/><ellipse cx="705.7" cy="699.0" rx="9.59" ry="8.46" fill="#8E7448" opacity="0.34"/><ellipse cx="703.8" cy="696.8" rx="9.40" ry="9.34" transform="rotate(152 703.8 696.8)" fill="url(#ooid)"/><ellipse cx="706.5" cy="655.2" rx="9.58" ry="8.45" fill="#8E7448" opacity="0.34"/><ellipse cx="704.6" cy="653.0" rx="9.39" ry="9.63" transform="rotate(41 704.6 653.0)" fill="url(#ooid)"/><ellipse cx="611.2" cy="773.8" rx="9.55" ry="8.43" fill="#8E7448" opacity="0.34"/><ellipse cx="609.3" cy="771.5" rx="9.36" ry="8.68" transform="rotate(31 609.3 771.5)" fill="url(#ooid)"/><ellipse cx="803.4" cy="738.5" rx="9.53" ry="8.41" fill="#8E7448" opacity="0.34"/><ellipse cx="801.5" cy="736.3" rx="9.34" ry="9.83" transform="rotate(70 801.5 736.3)" fill="url(#ooid)"/><ellipse cx="879.2" cy="777.8" rx="9.53" ry="8.41" fill="#8E7448" opacity="0.34"/><ellipse cx="877.3" cy="775.5" rx="9.34" ry="9.91" transform="rotate(174 877.3 775.5)" fill="url(#ooid)"/><ellipse cx="800.0" cy="804.9" rx="9.45" ry="8.34" fill="#8E7448" opacity="0.34"/><ellipse cx="798.2" cy="802.7" rx="9.26" ry="9.96" transform="rotate(84 798.2 802.7)" fill="url(#ooid)"/><ellipse cx="716.5" cy="761.8" rx="9.41" ry="8.30" fill="#8E7448" opacity="0.34"/><ellipse cx="714.7" cy="759.5" rx="9.22" ry="8.41" transform="rotate(50 714.7 759.5)" fill="url(#ooid)"/><ellipse cx="877.9" cy="686.4" rx="9.41" ry="8.30" fill="#8E7448" opacity="0.34"/><ellipse cx="876.1" cy="684.2" rx="9.22" ry="8.76" transform="rotate(117 876.1 684.2)" fill="url(#ooid)"/><ellipse cx="702.2" cy="677.6" rx="9.40" ry="8.30" fill="#8E7448" opacity="0.34"/><ellipse cx="700.3" cy="675.4" rx="9.22" ry="9.55" transform="rotate(166 700.3 675.4)" fill="url(#ooid)"/><ellipse cx="825.0" cy="795.2" rx="9.36" ry="8.26" fill="#8E7448" opacity="0.34"/><ellipse cx="823.1" cy="793.0" rx="9.17" ry="9.51" transform="rotate(173 823.1 793.0)" fill="url(#ooid)"/><ellipse cx="761.5" cy="669.8" rx="9.34" ry="8.24" fill="#8E7448" opacity="0.34"/><ellipse cx="759.6" cy="667.6" rx="9.16" ry="9.39" transform="rotate(85 759.6 667.6)" fill="url(#ooid)"/><ellipse cx="725.3" cy="648.4" rx="9.32" ry="8.23" fill="#8E7448" opacity="0.34"/><ellipse cx="723.5" cy="646.2" rx="9.14" ry="9.69" transform="rotate(49 723.5 646.2)" fill="url(#ooid)"/><ellipse cx="938.1" cy="813.0" rx="9.20" ry="8.12" fill="#8E7448" opacity="0.34"/><ellipse cx="936.3" cy="810.8" rx="9.02" ry="9.47" transform="rotate(131 936.3 810.8)" fill="url(#ooid)"/><ellipse cx="862.5" cy="801.1" rx="9.15" ry="8.07" fill="#8E7448" opacity="0.34"/><ellipse cx="860.7" cy="799.0" rx="8.97" ry="9.56" transform="rotate(11 860.7 799.0)" fill="url(#ooid)"/><ellipse cx="868.6" cy="820.0" rx="9.15" ry="8.07" fill="#8E7448" opacity="0.34"/><ellipse cx="866.8" cy="817.8" rx="8.97" ry="8.46" transform="rotate(171 866.8 817.8)" fill="url(#ooid)"/><ellipse cx="642.2" cy="814.7" rx="9.14" ry="8.06" fill="#8E7448" opacity="0.34"/><ellipse cx="640.4" cy="812.5" rx="8.96" ry="8.38" transform="rotate(81 640.4 812.5)" fill="url(#ooid)"/><ellipse cx="695.6" cy="761.9" rx="9.13" ry="8.05" fill="#8E7448" opacity="0.34"/><ellipse cx="693.8" cy="759.7" rx="8.95" ry="9.11" transform="rotate(87 693.8 759.7)" fill="url(#ooid)"/><ellipse cx="802.9" cy="694.1" rx="9.12" ry="8.05" fill="#8E7448" opacity="0.34"/><ellipse cx="801.1" cy="691.9" rx="8.94" ry="9.55" transform="rotate(172 801.1 691.9)" fill="url(#ooid)"/><ellipse cx="911.2" cy="649.9" rx="9.11" ry="8.04" fill="#8E7448" opacity="0.34"/><ellipse cx="909.4" cy="647.7" rx="8.93" ry="8.68" transform="rotate(24 909.4 647.7)" fill="url(#ooid)"/><ellipse cx="772.3" cy="776.0" rx="9.11" ry="8.04" fill="#8E7448" opacity="0.34"/><ellipse cx="770.5" cy="773.8" rx="8.93" ry="9.60" transform="rotate(82 770.5 773.8)" fill="url(#ooid)"/><ellipse cx="923.2" cy="672.7" rx="9.09" ry="8.02" fill="#8E7448" opacity="0.34"/><ellipse cx="921.4" cy="670.6" rx="8.91" ry="8.51" transform="rotate(25 921.4 670.6)" fill="url(#ooid)"/><ellipse cx="699.3" cy="723.1" rx="9.08" ry="8.01" fill="#8E7448" opacity="0.34"/><ellipse cx="697.5" cy="720.9" rx="8.90" ry="8.12" transform="rotate(105 697.5 720.9)" fill="url(#ooid)"/><ellipse cx="790.7" cy="752.7" rx="9.08" ry="8.01" fill="#8E7448" opacity="0.34"/><ellipse cx="789.0" cy="750.6" rx="8.90" ry="8.55" transform="rotate(100 789.0 750.6)" fill="url(#ooid)"/><ellipse cx="640.9" cy="725.6" rx="9.03" ry="7.97" fill="#8E7448" opacity="0.34"/><ellipse cx="639.1" cy="723.5" rx="8.86" ry="9.53" transform="rotate(87 639.1 723.5)" fill="url(#ooid)"/><ellipse cx="677.4" cy="715.2" rx="8.96" ry="7.90" fill="#8E7448" opacity="0.34"/><ellipse cx="675.7" cy="713.1" rx="8.78" ry="9.50" transform="rotate(12 675.7 713.1)" fill="url(#ooid)"/><ellipse cx="890.0" cy="669.0" rx="8.95" ry="7.90" fill="#8E7448" opacity="0.34"/><ellipse cx="888.3" cy="666.9" rx="8.77" ry="9.18" transform="rotate(136 888.3 666.9)" fill="url(#ooid)"/><ellipse cx="743.7" cy="661.5" rx="8.95" ry="7.90" fill="#8E7448" opacity="0.34"/><ellipse cx="741.9" cy="659.4" rx="8.77" ry="9.50" transform="rotate(6 741.9 659.4)" fill="url(#ooid)"/><ellipse cx="791.8" cy="826.0" rx="8.94" ry="7.88" fill="#8E7448" opacity="0.34"/><ellipse cx="790.1" cy="823.9" rx="8.76" ry="8.77" transform="rotate(100 790.1 823.9)" fill="url(#ooid)"/><ellipse cx="909.4" cy="751.3" rx="8.92" ry="7.87" fill="#8E7448" opacity="0.34"/><ellipse cx="907.6" cy="749.2" rx="8.75" ry="8.90" transform="rotate(85 907.6 749.2)" fill="url(#ooid)"/><ellipse cx="701.1" cy="781.7" rx="8.91" ry="7.86" fill="#8E7448" opacity="0.34"/><ellipse cx="699.3" cy="779.6" rx="8.73" ry="8.38" transform="rotate(163 699.3 779.6)" fill="url(#ooid)"/><ellipse cx="758.3" cy="649.3" rx="8.89" ry="7.85" fill="#8E7448" opacity="0.34"/><ellipse cx="756.5" cy="647.2" rx="8.72" ry="9.31" transform="rotate(126 756.5 647.2)" fill="url(#ooid)"/><ellipse cx="792.2" cy="715.3" rx="8.85" ry="7.81" fill="#8E7448" opacity="0.34"/><ellipse cx="790.5" cy="713.2" rx="8.68" ry="9.39" transform="rotate(100 790.5 713.2)" fill="url(#ooid)"/><ellipse cx="624.2" cy="823.5" rx="8.70" ry="7.68" fill="#8E7448" opacity="0.34"/><ellipse cx="622.5" cy="821.5" rx="8.53" ry="7.89" transform="rotate(125 622.5 821.5)" fill="url(#ooid)"/><ellipse cx="754.2" cy="770.6" rx="8.70" ry="7.67" fill="#8E7448" opacity="0.34"/><ellipse cx="752.5" cy="768.5" rx="8.53" ry="7.92" transform="rotate(135 752.5 768.5)" fill="url(#ooid)"/><ellipse cx="752.4" cy="702.0" rx="8.66" ry="7.64" fill="#8E7448" opacity="0.34"/><ellipse cx="750.7" cy="699.9" rx="8.49" ry="8.72" transform="rotate(37 750.7 699.9)" fill="url(#ooid)"/><ellipse cx="947.4" cy="664.7" rx="8.61" ry="7.60" fill="#8E7448" opacity="0.34"/><ellipse cx="945.7" cy="662.6" rx="8.44" ry="7.92" transform="rotate(12 945.7 662.6)" fill="url(#ooid)"/><ellipse cx="696.0" cy="821.5" rx="8.56" ry="7.55" fill="#8E7448" opacity="0.34"/><ellipse cx="694.4" cy="819.5" rx="8.39" ry="7.91" transform="rotate(176 694.4 819.5)" fill="url(#ooid)"/><ellipse cx="850.7" cy="649.3" rx="8.54" ry="7.54" fill="#8E7448" opacity="0.34"/><ellipse cx="849.0" cy="647.3" rx="8.38" ry="7.97" transform="rotate(159 849.0 647.3)" fill="url(#ooid)"/><ellipse cx="656.3" cy="653.6" rx="8.53" ry="7.53" fill="#8E7448" opacity="0.34"/><ellipse cx="654.6" cy="651.5" rx="8.37" ry="7.81" transform="rotate(61 654.6 651.5)" fill="url(#ooid)"/><ellipse cx="691.1" cy="801.2" rx="8.49" ry="7.49" fill="#8E7448" opacity="0.34"/><ellipse cx="689.4" cy="799.2" rx="8.32" ry="8.28" transform="rotate(65 689.4 799.2)" fill="url(#ooid)"/><ellipse cx="771.9" cy="824.2" rx="8.48" ry="7.49" fill="#8E7448" opacity="0.34"/><ellipse cx="770.2" cy="822.2" rx="8.32" ry="9.01" transform="rotate(43 770.2 822.2)" fill="url(#ooid)"/><ellipse cx="626.0" cy="803.6" rx="8.48" ry="7.48" fill="#8E7448" opacity="0.34"/><ellipse cx="624.4" cy="801.6" rx="8.32" ry="8.29" transform="rotate(37 624.4 801.6)" fill="url(#ooid)"/><ellipse cx="929.8" cy="773.4" rx="8.47" ry="7.48" fill="#8E7448" opacity="0.34"/><ellipse cx="928.1" cy="771.4" rx="8.31" ry="7.72" transform="rotate(124 928.1 771.4)" fill="url(#ooid)"/><ellipse cx="657.4" cy="709.5" rx="8.46" ry="7.47" fill="#8E7448" opacity="0.34"/><ellipse cx="655.7" cy="707.5" rx="8.30" ry="8.06" transform="rotate(88 655.7 707.5)" fill="url(#ooid)"/><ellipse cx="772.7" cy="709.1" rx="8.46" ry="7.46" fill="#8E7448" opacity="0.34"/><ellipse cx="771.0" cy="707.1" rx="8.29" ry="8.58" transform="rotate(16 771.0 707.1)" fill="url(#ooid)"/><ellipse cx="892.9" cy="764.0" rx="8.41" ry="7.42" fill="#8E7448" opacity="0.34"/><ellipse cx="891.3" cy="762.0" rx="8.24" ry="7.58" transform="rotate(124 891.3 762.0)" fill="url(#ooid)"/><ellipse cx="688.1" cy="665.7" rx="8.40" ry="7.41" fill="#8E7448" opacity="0.34"/><ellipse cx="686.5" cy="663.7" rx="8.23" ry="8.97" transform="rotate(3 686.5 663.7)" fill="url(#ooid)"/><ellipse cx="730.2" cy="749.0" rx="8.36" ry="7.38" fill="#8E7448" opacity="0.34"/><ellipse cx="728.5" cy="747.1" rx="8.20" ry="8.13" transform="rotate(179 728.5 747.1)" fill="url(#ooid)"/><ellipse cx="678.2" cy="790.1" rx="8.30" ry="7.32" fill="#8E7448" opacity="0.34"/><ellipse cx="676.6" cy="788.2" rx="8.14" ry="8.62" transform="rotate(178 676.6 788.2)" fill="url(#ooid)"/><ellipse cx="668.6" cy="739.9" rx="8.24" ry="7.27" fill="#8E7448" opacity="0.34"/><ellipse cx="667.0" cy="738.0" rx="8.08" ry="8.12" transform="rotate(175 667.0 738.0)" fill="url(#ooid)"/><ellipse cx="857.6" cy="770.0" rx="8.23" ry="7.26" fill="#8E7448" opacity="0.34"/><ellipse cx="856.0" cy="768.1" rx="8.07" ry="7.42" transform="rotate(85 856.0 768.1)" fill="url(#ooid)"/><ellipse cx="940.7" cy="794.7" rx="8.23" ry="7.26" fill="#8E7448" opacity="0.34"/><ellipse cx="939.1" cy="792.8" rx="8.07" ry="8.57" transform="rotate(70 939.1 792.8)" fill="url(#ooid)"/><ellipse cx="775.3" cy="649.9" rx="8.20" ry="7.23" fill="#8E7448" opacity="0.34"/><ellipse cx="773.7" cy="648.0" rx="8.04" ry="7.95" transform="rotate(81 773.7 648.0)" fill="url(#ooid)"/><ellipse cx="657.8" cy="825.0" rx="8.19" ry="7.23" fill="#8E7448" opacity="0.34"/><ellipse cx="656.2" cy="823.1" rx="8.03" ry="7.86" transform="rotate(146 656.2 823.1)" fill="url(#ooid)"/><ellipse cx="842.4" cy="747.9" rx="8.19" ry="7.22" fill="#8E7448" opacity="0.34"/><ellipse cx="840.8" cy="745.9" rx="8.03" ry="8.71" transform="rotate(42 840.8 745.9)" fill="url(#ooid)"/><ellipse cx="715.8" cy="714.6" rx="8.14" ry="7.19" fill="#8E7448" opacity="0.34"/><ellipse cx="714.2" cy="712.7" rx="7.99" ry="7.73" transform="rotate(145 714.2 712.7)" fill="url(#ooid)"/><ellipse cx="676.3" cy="756.3" rx="8.14" ry="7.18" fill="#8E7448" opacity="0.34"/><ellipse cx="674.7" cy="754.4" rx="7.98" ry="8.33" transform="rotate(147 674.7 754.4)" fill="url(#ooid)"/><ellipse cx="610.3" cy="795.3" rx="8.10" ry="7.14" fill="#8E7448" opacity="0.34"/><ellipse cx="608.8" cy="793.4" rx="7.94" ry="8.20" transform="rotate(165 608.8 793.4)" fill="url(#ooid)"/><ellipse cx="753.1" cy="822.7" rx="8.07" ry="7.12" fill="#8E7448" opacity="0.34"/><ellipse cx="751.5" cy="820.8" rx="7.91" ry="8.40" transform="rotate(114 751.5 820.8)" fill="url(#ooid)"/><ellipse cx="897.7" cy="788.9" rx="8.03" ry="7.08" fill="#8E7448" opacity="0.34"/><ellipse cx="896.2" cy="787.0" rx="7.87" ry="7.56" transform="rotate(15 896.2 787.0)" fill="url(#ooid)"/><ellipse cx="718.0" cy="782.0" rx="7.99" ry="7.05" fill="#8E7448" opacity="0.34"/><ellipse cx="716.4" cy="780.1" rx="7.84" ry="8.34" transform="rotate(154 716.4 780.1)" fill="url(#ooid)"/><ellipse cx="948.4" cy="826.4" rx="7.98" ry="7.04" fill="#8E7448" opacity="0.34"/><ellipse cx="946.9" cy="824.6" rx="7.82" ry="8.37" transform="rotate(48 946.9 824.6)" fill="url(#ooid)"/><ellipse cx="793.4" cy="770.9" rx="7.97" ry="7.03" fill="#8E7448" opacity="0.34"/><ellipse cx="791.9" cy="769.0" rx="7.82" ry="8.15" transform="rotate(167 791.9 769.0)" fill="url(#ooid)"/><ellipse cx="728.5" cy="669.4" rx="7.95" ry="7.01" fill="#8E7448" opacity="0.34"/><ellipse cx="727.0" cy="667.5" rx="7.79" ry="7.38" transform="rotate(4 727.0 667.5)" fill="url(#ooid)"/><ellipse cx="743.0" cy="678.1" rx="7.83" ry="6.91" fill="#8E7448" opacity="0.34"/><ellipse cx="741.5" cy="676.3" rx="7.67" ry="7.22" transform="rotate(39 741.5 676.3)" fill="url(#ooid)"/><ellipse cx="773.5" cy="725.5" rx="7.82" ry="6.90" fill="#8E7448" opacity="0.34"/><ellipse cx="771.9" cy="723.7" rx="7.67" ry="7.92" transform="rotate(148 771.9 723.7)" fill="url(#ooid)"/><ellipse cx="659.7" cy="725.9" rx="7.80" ry="6.88" fill="#8E7448" opacity="0.34"/><ellipse cx="658.2" cy="724.0" rx="7.64" ry="8.08" transform="rotate(124 658.2 724.0)" fill="url(#ooid)"/><ellipse cx="816.1" cy="755.6" rx="7.78" ry="6.86" fill="#8E7448" opacity="0.34"/><ellipse cx="814.6" cy="753.8" rx="7.62" ry="8.28" transform="rotate(175 814.6 753.8)" fill="url(#ooid)"/><ellipse cx="638.7" cy="663.1" rx="7.76" ry="6.85" fill="#8E7448" opacity="0.34"/><ellipse cx="637.2" cy="661.3" rx="7.61" ry="7.53" transform="rotate(166 637.2 661.3)" fill="url(#ooid)"/><ellipse cx="823.4" cy="648.1" rx="7.75" ry="6.84" fill="#8E7448" opacity="0.34"/><ellipse cx="821.9" cy="646.3" rx="7.60" ry="7.90" transform="rotate(44 821.9 646.3)" fill="url(#ooid)"/><ellipse cx="775.6" cy="807.8" rx="7.75" ry="6.84" fill="#8E7448" opacity="0.34"/><ellipse cx="774.1" cy="806.0" rx="7.60" ry="7.72" transform="rotate(31 774.1 806.0)" fill="url(#ooid)"/><ellipse cx="930.4" cy="656.4" rx="7.74" ry="6.83" fill="#8E7448" opacity="0.34"/><ellipse cx="928.9" cy="654.5" rx="7.59" ry="7.45" transform="rotate(146 928.9 654.5)" fill="url(#ooid)"/><ellipse cx="924.0" cy="826.0" rx="7.72" ry="6.82" fill="#8E7448" opacity="0.34"/><ellipse cx="922.4" cy="824.1" rx="7.57" ry="6.90" transform="rotate(97 922.4 824.1)" fill="url(#ooid)"/><ellipse cx="821.2" cy="708.9" rx="7.70" ry="6.79" fill="#8E7448" opacity="0.34"/><ellipse cx="819.7" cy="707.1" rx="7.55" ry="7.46" transform="rotate(51 819.7 707.1)" fill="url(#ooid)"/><ellipse cx="786.4" cy="790.8" rx="7.68" ry="6.78" fill="#8E7448" opacity="0.34"/><ellipse cx="784.9" cy="789.0" rx="7.53" ry="6.94" transform="rotate(94 784.9 789.0)" fill="url(#ooid)"/><ellipse cx="718.6" cy="733.7" rx="7.68" ry="6.78" fill="#8E7448" opacity="0.34"/><ellipse cx="717.1" cy="731.9" rx="7.53" ry="7.30" transform="rotate(18 717.1 731.9)" fill="url(#ooid)"/><ellipse cx="809.8" cy="719.8" rx="7.64" ry="6.74" fill="#8E7448" opacity="0.34"/><ellipse cx="808.3" cy="718.0" rx="7.49" ry="7.35" transform="rotate(122 808.3 718.0)" fill="url(#ooid)"/><ellipse cx="625.5" cy="673.4" rx="7.54" ry="6.65" fill="#8E7448" opacity="0.34"/><ellipse cx="624.0" cy="671.6" rx="7.39" ry="6.83" transform="rotate(141 624.0 671.6)" fill="url(#ooid)"/><ellipse cx="633.3" cy="785.4" rx="7.50" ry="6.62" fill="#8E7448" opacity="0.34"/><ellipse cx="631.9" cy="783.6" rx="7.36" ry="6.80" transform="rotate(85 631.9 783.6)" fill="url(#ooid)"/><ellipse cx="815.0" cy="667.5" rx="7.47" ry="6.59" fill="#8E7448" opacity="0.34"/><ellipse cx="813.5" cy="665.7" rx="7.32" ry="7.14" transform="rotate(154 813.5 665.7)" fill="url(#ooid)"/><ellipse cx="683.5" cy="732.5" rx="7.45" ry="6.57" fill="#8E7448" opacity="0.34"/><ellipse cx="682.1" cy="730.8" rx="7.30" ry="7.82" transform="rotate(133 682.1 730.8)" fill="url(#ooid)"/><ellipse cx="654.9" cy="770.1" rx="7.45" ry="6.57" fill="#8E7448" opacity="0.34"/><ellipse cx="653.4" cy="768.3" rx="7.30" ry="7.03" transform="rotate(58 653.4 768.3)" fill="url(#ooid)"/><ellipse cx="950.1" cy="648.0" rx="7.37" ry="6.50" fill="#8E7448" opacity="0.34"/><ellipse cx="948.7" cy="646.3" rx="7.22" ry="7.65" transform="rotate(92 948.7 646.3)" fill="url(#ooid)"/><ellipse cx="780.2" cy="739.3" rx="7.35" ry="6.49" fill="#8E7448" opacity="0.34"/><ellipse cx="778.8" cy="737.6" rx="7.21" ry="7.38" transform="rotate(130 778.8 737.6)" fill="url(#ooid)"/><ellipse cx="804.4" cy="651.6" rx="7.34" ry="6.48" fill="#8E7448" opacity="0.34"/><ellipse cx="803.0" cy="649.9" rx="7.20" ry="6.80" transform="rotate(69 803.0 649.9)" fill="url(#ooid)"/><ellipse cx="702.7" cy="742.3" rx="7.27" ry="6.42" fill="#8E7448" opacity="0.34"/><ellipse cx="701.2" cy="740.5" rx="7.13" ry="7.71" transform="rotate(60 701.2 740.5)" fill="url(#ooid)"/><ellipse cx="907.6" cy="821.6" rx="7.26" ry="6.40" fill="#8E7448" opacity="0.34"/><ellipse cx="906.1" cy="819.8" rx="7.11" ry="7.56" transform="rotate(28 906.1 819.8)" fill="url(#ooid)"/><ellipse cx="815.2" cy="775.1" rx="7.13" ry="6.29" fill="#8E7448" opacity="0.34"/><ellipse cx="813.8" cy="773.4" rx="6.99" ry="6.38" transform="rotate(90 813.8 773.4)" fill="url(#ooid)"/><ellipse cx="730.2" cy="803.8" rx="7.10" ry="6.27" fill="#8E7448" opacity="0.34"/><ellipse cx="728.8" cy="802.2" rx="6.96" ry="6.69" transform="rotate(107 728.8 802.2)" fill="url(#ooid)"/><ellipse cx="753.3" cy="725.1" rx="7.10" ry="6.26" fill="#8E7448" opacity="0.34"/><ellipse cx="751.9" cy="723.4" rx="6.96" ry="7.30" transform="rotate(7 751.9 723.4)" fill="url(#ooid)"/><ellipse cx="628.8" cy="738.9" rx="6.98" ry="6.16" fill="#8E7448" opacity="0.34"/><ellipse cx="627.5" cy="737.3" rx="6.85" ry="6.84" transform="rotate(67 627.5 737.3)" fill="url(#ooid)"/><ellipse cx="893.2" cy="651.8" rx="6.89" ry="6.08" fill="#8E7448" opacity="0.34"/><ellipse cx="891.8" cy="650.1" rx="6.75" ry="7.25" transform="rotate(152 891.8 650.1)" fill="url(#ooid)"/><ellipse cx="760.0" cy="687.9" rx="6.83" ry="6.03" fill="#8E7448" opacity="0.34"/><ellipse cx="758.7" cy="686.3" rx="6.70" ry="7.16" transform="rotate(133 758.7 686.3)" fill="url(#ooid)"/><ellipse cx="890.9" cy="724.1" rx="6.76" ry="5.96" fill="#8E7448" opacity="0.34"/><ellipse cx="889.5" cy="722.5" rx="6.62" ry="6.44" transform="rotate(111 889.5 722.5)" fill="url(#ooid)"/><ellipse cx="880.1" cy="798.0" rx="6.75" ry="5.95" fill="#8E7448" opacity="0.34"/><ellipse cx="878.8" cy="796.4" rx="6.61" ry="6.67" transform="rotate(66 878.8 796.4)" fill="url(#ooid)"/><ellipse cx="677.5" cy="773.8" rx="6.71" ry="5.92" fill="#8E7448" opacity="0.34"/><ellipse cx="676.2" cy="772.2" rx="6.57" ry="6.33" transform="rotate(117 676.2 772.2)" fill="url(#ooid)"/><ellipse cx="799.8" cy="784.3" rx="6.65" ry="5.87" fill="#8E7448" opacity="0.34"/><ellipse cx="798.5" cy="782.7" rx="6.52" ry="6.99" transform="rotate(44 798.5 782.7)" fill="url(#ooid)"/></g><text x="598" y="856" font-family="ui-monospace,SFMono-Regular,Menlo,Consolas,'Liberation Mono',monospace" font-size="14.5" font-weight="400" fill="#4E6B74" text-anchor="start" letter-spacing="0.05em">Grain shown enlarged</text><rect x="598" y="882" width="354" height="2" fill="#0B2C3A" opacity="0.16"/><text x="598" y="938" font-family="system-ui,-apple-system,'Segoe UI',Roboto,'Helvetica Neue',Arial,sans-serif" font-size="38.0" font-weight="700" fill="#0B2C3A" text-anchor="start">Net 20 lb</text><text x="598" y="966" font-family="ui-monospace,SFMono-Regular,Menlo,Consolas,'Liberation Mono',monospace" font-size="18.0" font-weight="400" fill="#4E6B74" text-anchor="start">9.07 kg</text><text x="952" y="920" font-family="ui-monospace,SFMono-Regular,Menlo,Consolas,'Liberation Mono',monospace" font-size="14.0" font-weight="400" fill="#4E6B74" text-anchor="end" letter-spacing="0.1em">Lot</text><text x="952" y="950" font-family="ui-monospace,SFMono-Regular,Menlo,Consolas,'Liberation Mono',monospace" font-size="18.0" font-weight="500" fill="#0B2C3A" text-anchor="end">AC-2608-F01</text><path d="M570 236 C530 332 528 796 554 960 C570 1014 978 1018 996 962 C1022 786 1020 330 980 236 Z" fill="url(#face)" style="mix-blend-mode:multiply" opacity="0.46"/></g><path d="M570 240 H980 L976 164 H574 Z" fill="url(#seal)"/><path d="M570 240 C562 266 564 276 574 288 H976 C986 276 988 266 980 240 Z" fill="url(#seal)"/><path d="M578 164 v9" stroke="#FFFFFF" stroke-width="3" opacity="0.28"/><path d="M591 164 v9" stroke="#FFFFFF" stroke-width="3" opacity="0.28"/><path d="M604 164 v9" stroke="#FFFFFF" stroke-width="3" opacity="0.28"/><path d="M617 164 v9" stroke="#FFFFFF" stroke-width="3" opacity="0.28"/><path d="M630 164 v9" stroke="#FFFFFF" stroke-width="3" opacity="0.28"/><path d="M643 164 v9" stroke="#FFFFFF" stroke-width="3" opacity="0.28"/><path d="M656 164 v9" stroke="#FFFFFF" stroke-width="3" opacity="0.28"/><path d="M669 164 v9" stroke="#FFFFFF" stroke-width="3" opacity="0.28"/><path d="M682 164 v9" stroke="#FFFFFF" stroke-width="3" opacity="0.28"/><path d="M695 164 v9" stroke="#FFFFFF" stroke-width="3" opacity="0.28"/><path d="M708 164 v9" stroke="#FFFFFF" stroke-width="3" opacity="0.28"/><path d="M721 164 v9" stroke="#FFFFFF" stroke-width="3" opacity="0.28"/><path d="M734 164 v9" stroke="#FFFFFF" stroke-width="3" opacity="0.28"/><path d="M747 164 v9" stroke="#FFFFFF" stroke-width="3" opacity="0.28"/><path d="M760 164 v9" stroke="#FFFFFF" stroke-width="3" opacity="0.28"/><path d="M773 164 v9" stroke="#FFFFFF" stroke-width="3" opacity="0.28"/><path d="M786 164 v9" stroke="#FFFFFF" stroke-width="3" opacity="0.28"/><path d="M799 164 v9" stroke="#FFFFFF" stroke-width="3" opacity="0.28"/><path d="M812 164 v9" stroke="#FFFFFF" stroke-width="3" opacity="0.28"/><path d="M825 164 v9" stroke="#FFFFFF" stroke-width="3" opacity="0.28"/><path d="M838 164 v9" stroke="#FFFFFF" stroke-width="3" opacity="0.28"/><path d="M851 164 v9" stroke="#FFFFFF" stroke-width="3" opacity="0.28"/><path d="M864 164 v9" stroke="#FFFFFF" stroke-width="3" opacity="0.28"/><path d="M877 164 v9" stroke="#FFFFFF" stroke-width="3" opacity="0.28"/><path d="M890 164 v9" stroke="#FFFFFF" stroke-width="3" opacity="0.28"/><path d="M903 164 v9" stroke="#FFFFFF" stroke-width="3" opacity="0.28"/><path d="M916 164 v9" stroke="#FFFFFF" stroke-width="3" opacity="0.28"/><path d="M929 164 v9" stroke="#FFFFFF" stroke-width="3" opacity="0.28"/><path d="M942 164 v9" stroke="#FFFFFF" stroke-width="3" opacity="0.28"/><path d="M955 164 v9" stroke="#FFFFFF" stroke-width="3" opacity="0.28"/><g filter="url(#soft6)" opacity="0.4"><path d="M596 178 H860" stroke="#FFFFFF" stroke-width="9"/></g><rect x="683.0" y="186" width="184" height="28" rx="14" fill="#EFECE5"/><g filter="url(#soft3)" opacity="0.45"><rect x="683.0" y="186" width="184" height="11" rx="5.5" fill="#4A463F"/></g><g clip-path="url(#cf)" opacity="0.05" style="mix-blend-mode:multiply"><rect x="500" y="216" width="550" height="830" filter="url(#filmgrain)"/></g></g></svg>